<?xml version="1.0" encoding="utf-8"?>
<!--

    Copyright (c) 2012-2016 Codenvy, S.A.
    All rights reserved. This program and the accompanying materials
    are made available under the terms of the Eclipse Public License v1.0
    which accompanies this distribution, and is available at
    http://www.eclipse.org/legal/epl-v10.html

    Contributors:
      Codenvy, S.A. - initial API and implementation

-->
<svg width="16px" height="18px" viewBox="0 0 16 18" version="1.1" xmlns="http://www.w3.org/2000/svg" xmlns:xlink="http://www.w3.org/1999/xlink">
    <g stroke="none" stroke-width="1" fill="none" fill-rule="evenodd">
        <g transform="translate(-383.000000, -27.000000)" fill="#4A90E2">
            <g transform="translate(-2.000000, -2.000000)">
                <g transform="translate(376.000000, 27.000000)">
                    <g transform="translate(9.000000, 2.000000)">
                        <path d="M2.63332858,6.01578065 L2.63332858,11.8628852 L7.85140413,8.93410441 L7.85140413,3.09264334 L2.63332858,6.01578065"></path>
                        <path d="M7.98312188,9.15519458 L2.76196721,12.0859671 L7.98654312,15.012756 L13.2099216,12.086631 L7.98312188,9.15519458"></path>
                        <path d="M8.11466857,3.08849375 L8.11466857,8.93410441 L13.3399287,11.864379 L13.3399287,6.01578065 L8.11466857,3.08849375"></path>
                        <path d="M15.7099929,13.1935757 L13.3399287,11.864379 L13.3399287,12.0137643 L13.2099216,12.086631 L15.5786173,13.4149979 L8.11826087,17.5944651 L8.11826087,14.9390593 L7.98654312,15.012756 L7.85482537,14.9390593 L7.85482537,17.5944651 L0.394468995,13.4148319 L2.76196721,12.0859671 L2.63332858,12.0137643 L2.63332858,11.8628852 L0.263435494,13.1932438 L0.263264434,4.8356372 L2.63332858,6.16334006 L2.63332858,6.01578065 L2.76487527,5.94208393 L0.394982182,4.61421506 L7.85140413,0.437071626 L7.85140413,3.09264334 L7.98295082,3.01894664 L7.98654312,3.01678884 L8.11466857,3.08849375 L8.11466857,0.433254002 L15.5781041,4.61421506 L13.208211,5.94191795 L13.3399287,6.01578065 L13.3399287,6.16317408 L15.7099929,4.83547122 L15.7099929,13.1935757 L15.7099929,13.1935757 Z M15.8415395,4.46682164 L8.11466857,0.13813515 L7.98654312,0.0662642483 L7.85123307,0.142118757 L0,4.54051834 L0,13.4890265 L7.85482537,17.8894179 L7.98654312,17.9631146 L8.11826087,17.8894179 L15.8418817,13.5627233 L15.9732573,13.4890265 L15.9732573,4.54051834 L15.8415395,4.46682164 L15.8415395,4.46682164 Z"></path>
                    </g>
                </g>
            </g>
        </g>
    </g>
</svg>