<?xml version="1.0" encoding="UTF-8" standalone="no"?>
<!-- Created with Inkscape (http://www.inkscape.org/) -->

<svg
   xmlns:dc="http://purl.org/dc/elements/1.1/"
   xmlns:cc="http://creativecommons.org/ns#"
   xmlns:svg="http://www.w3.org/2000/svg"
   xmlns="http://www.w3.org/2000/svg"
   xmlns:xlink="http://www.w3.org/1999/xlink"
   version="1.1"
   width="700"
   height="256.96399"
   viewBox="0 0 700 256.964"
   xml:space="preserve"><defs
     id="defs111" /><g
     transform="translate(-50.380169,-6.5006669)"
     id="g3"><defs
       id="defs5"><rect
         width="1170.1169"
         height="256.96399"
         x="0"
         y="0"
         id="SVGID_1_" /></defs><clipPath
       id="SVGID_2_"><use
         id="use9"
         style="overflow:visible"
         x="0"
         y="0"
         width="1170.12"
         height="256.96399"
         xlink:href="#SVGID_1_" /></clipPath><path
       d="m 290.23,89.998 h 2.427 c 0.171,1.366 0.721,2.503 3.016,2.503 1.499,0 2.56,-0.833 2.56,-2.086 0,-1.252 -0.626,-1.726 -2.826,-2.085 -3.241,-0.437 -4.779,-1.423 -4.779,-3.965 0,-2.218 1.896,-3.888 4.722,-3.888 2.921,0 4.667,1.328 4.932,3.926 h -2.313 c -0.247,-1.423 -1.063,-2.029 -2.619,-2.029 -1.535,0 -2.332,0.739 -2.332,1.783 0,1.1 0.455,1.651 2.807,1.99 3.186,0.437 4.837,1.348 4.837,4.06 0,2.351 -1.992,4.192 -4.989,4.192 -3.699,0 -5.253,-1.841 -5.443,-4.401"
       clip-path="url(#SVGID_2_)"
       id="path11"
       style="fill:#ffffff" /><path
       d="m 302.204,91.459 c 0,-2.313 2.239,-3.148 5.084,-3.148 h 1.232 v -0.513 c 0,-1.326 -0.455,-1.991 -1.801,-1.991 -1.196,0 -1.784,0.57 -1.898,1.555 h -2.218 c 0.189,-2.314 2.029,-3.281 4.249,-3.281 2.218,0 3.963,0.91 3.963,3.622 v 6.506 h -2.257 v -1.214 c -0.645,0.853 -1.517,1.404 -3.035,1.404 -1.82,0 -3.319,-0.873 -3.319,-2.94 m 6.316,-0.721 v -0.987 h -1.175 c -1.746,0 -2.864,0.399 -2.864,1.613 0,0.834 0.454,1.385 1.593,1.385 1.404,0 2.446,-0.74 2.446,-2.011"
       clip-path="url(#SVGID_2_)"
       id="path13"
       style="fill:#ffffff" /><path
       d="m 313.457,84.29 h 2.296 v 1.517 c 0.473,-0.929 1.555,-1.726 3.014,-1.726 1.29,0 2.315,0.551 2.807,1.784 0.759,-1.233 2.124,-1.784 3.357,-1.784 1.822,0 3.3,1.12 3.3,3.851 v 6.276 h -2.294 v -6.126 c 0,-1.46 -0.626,-2.086 -1.765,-2.086 -1.137,0 -2.181,0.759 -2.181,2.277 v 5.935 h -2.294 v -6.126 c 0,-1.46 -0.645,-2.086 -1.763,-2.086 -1.139,0 -2.181,0.759 -2.181,2.277 v 5.935 h -2.296 V 84.29 z"
       clip-path="url(#SVGID_2_)"
       id="path15"
       style="fill:#ffffff" /><path
       d="m 330.119,91.117 h 2.162 c 0.114,1.006 0.626,1.594 1.972,1.594 1.233,0 1.782,-0.436 1.782,-1.271 0,-0.815 -0.663,-1.118 -2.124,-1.367 -2.617,-0.416 -3.585,-1.156 -3.585,-3.014 0,-1.992 1.86,-2.977 3.718,-2.977 2.03,0 3.642,0.757 3.888,2.996 h -2.123 c -0.19,-0.911 -0.703,-1.328 -1.765,-1.328 -0.987,0 -1.574,0.474 -1.574,1.177 0,0.719 0.475,1.004 2.048,1.269 2.333,0.361 3.718,0.93 3.718,3.035 0,2.01 -1.423,3.167 -3.964,3.167 -2.561,0 -4.058,-1.175 -4.153,-3.281"
       clip-path="url(#SVGID_2_)"
       id="path17"
       style="fill:#ffffff" /><path
       d="m 340.156,90.643 v -6.354 h 2.294 v 6.088 c 0,1.499 0.627,2.181 1.953,2.181 1.235,0 2.315,-0.795 2.315,-2.37 v -5.899 h 2.295 v 9.92 h -2.295 v -1.556 c -0.493,0.968 -1.537,1.746 -3.148,1.746 -1.953,0 -3.414,-1.12 -3.414,-3.756"
       clip-path="url(#SVGID_2_)"
       id="path19"
       style="fill:#ffffff" /><path
       d="m 351.731,84.29 h 2.294 v 1.575 c 0.475,-0.968 1.576,-1.784 3.207,-1.784 1.99,0 3.394,1.158 3.394,3.889 v 6.238 h -2.295 v -6.029 c 0,-1.5 -0.607,-2.183 -1.971,-2.183 -1.291,0 -2.335,0.797 -2.335,2.372 v 5.84 h -2.294 V 84.29 z"
       clip-path="url(#SVGID_2_)"
       id="path21"
       style="fill:#ffffff" /><path
       d="m 362.718,94.55 h 2.313 c 0.19,0.985 0.949,1.554 2.448,1.554 1.782,0 2.769,-0.89 2.769,-2.674 v -1.459 c -0.55,0.948 -1.784,1.839 -3.243,1.839 -2.484,0 -4.401,-1.858 -4.401,-4.722 v -0.133 c 0,-2.788 1.898,-4.874 4.458,-4.874 1.632,0 2.617,0.741 3.186,1.726 V 84.29 h 2.295 v 9.178 c -0.021,2.921 -1.972,4.382 -5.045,4.382 -3.11,0 -4.515,-1.404 -4.78,-3.3 m 7.606,-5.538 v -0.133 c 0,-1.878 -1.025,-2.996 -2.676,-2.996 -1.706,0 -2.693,1.233 -2.693,3.034 v 0.152 c 0,1.839 1.139,2.978 2.619,2.978 1.593,0 2.75,-1.139 2.75,-3.035"
       clip-path="url(#SVGID_2_)"
       id="path23"
       style="fill:#ffffff" /><polygon
       points="166.727,80.478 118.49,108.327 118.49,164.031 166.727,136.128 "
       clip-path="url(#SVGID_2_)"
       id="polygon25"
       style="fill:#7800be" /><polygon
       points="216.262,166.162 167.945,138.236 119.68,166.156 167.977,194.04 "
       clip-path="url(#SVGID_2_)"
       id="polygon27"
       style="fill:#c855ff" /><polygon
       points="217.464,108.327 169.161,80.438 169.161,136.129 217.464,164.047 "
       clip-path="url(#SVGID_2_)"
       id="polygon29"
       style="fill:#a000dc" /><path
       d="M 240.589,93.569 169.16,52.33 l -1.182,-0.685 -1.251,0.723 -71.362,41.201 -1.216,0.702 v 85.253 l 72.611,41.922 1.218,0.702 1.216,-0.702 71.398,-41.22 1.216,-0.702 V 94.271 l -1.219,-0.702 z m -1.216,83.14 -21.909,-12.663 v 1.423 l -1.202,0.694 21.898,12.656 -68.966,39.816 v -25.298 l -1.216,0.702 -1.218,-0.702 v 25.298 l -68.966,-39.818 21.887,-12.66 -1.191,-0.688 v -0.028 -1.409 L 96.582,176.707 V 97.084 l 21.908,12.648 v -1.406 l 1.218,-0.702 L 97.8,94.973 166.727,55.178 v 25.301 l 1.217,-0.704 0.034,-0.019 1.184,0.682 V 55.141 l 68.993,39.832 -21.909,12.649 1.218,0.704 v 1.406 l 21.909,-12.649 v 79.626 z"
       clip-path="url(#SVGID_2_)"
       id="path31"
       style="fill:#c855ff" /><polygon
       points="217.463,165.469 217.463,164.047 169.161,136.129 169.161,80.439 167.977,79.756 167.942,79.775 166.727,80.477 166.727,136.129 118.491,164.033 118.491,165.469 119.68,166.157 167.945,138.236 216.262,166.163 "
       clip-path="url(#SVGID_2_)"
       id="polygon33"
       style="fill:#55008c" /><path
       d="m 312.382,103.051 h 16 l 21.702,65.75 h -12.69 l -5.241,-16.276 h -25.104 l -5.15,16.276 h -11.495 l 21.978,-65.75 z m -2.483,40.553 h 19.403 l -9.656,-30.529 -9.747,30.529 z"
       clip-path="url(#SVGID_2_)"
       id="path35"
       style="fill:#ffffff" /><path
       d="m 360.379,103.052 h 22.069 c 14.437,0 24.553,5.885 24.553,19.311 v 0.367 c 0,10.3 -6.437,15.541 -14.621,17.655 l 18.483,28.415 h -13.241 l -17.197,-26.576 h -7.816 V 168.8 h -12.23 v -65.748 z m 22.069,30.437 c 8.185,0 12.507,-3.495 12.507,-10.483 v -0.368 c 0,-7.54 -4.691,-10.114 -12.507,-10.114 h -9.839 v 20.965 h 9.839 z"
       clip-path="url(#SVGID_2_)"
       id="path37"
       style="fill:#ffffff" /><polygon
       points="463.92,103.051 463.92,112.707 445.622,112.707 445.622,168.8 433.299,168.8 433.299,112.707 415,112.707 415,103.051 "
       clip-path="url(#SVGID_2_)"
       id="polygon39"
       style="fill:#ffffff" /><rect
       width="12.323"
       height="65.749001"
       x="477.34299"
       y="103.051"
       clip-path="url(#SVGID_2_)"
       id="rect41"
       style="fill:#ffffff" /><polygon
       points="507.688,103.052 519.918,103.052 519.918,132.846 545.115,102.959 558.264,102.959 531.044,134.409 559.644,168.801 545.206,168.801 519.918,138.088 519.918,168.801 507.688,168.801 "
       clip-path="url(#SVGID_2_)"
       id="polygon43"
       style="fill:#ffffff" /><polygon
       points="576.112,103.077 576.112,104.488 573.436,104.488 573.436,112.686 571.637,112.686 571.637,104.488 568.961,104.488 568.961,103.077 "
       clip-path="url(#SVGID_2_)"
       id="polygon45"
       style="fill:#ffffff" /><polygon
       points="579.162,112.688 577.551,112.688 577.551,103.077 579.942,103.077 582.469,109.635 584.942,103.077 587.308,103.077 587.308,112.688 585.521,112.688 585.521,105.428 582.657,112.688 582.08,112.688 579.162,105.428 "
       clip-path="url(#SVGID_2_)"
       id="polygon47"
       style="fill:#ffffff" /></g><g
     transform="translate(-50.380169,-6.5006669)"
     id="g49"><path
       d="m 602.479,103.051 h 5.149 v 65.744 h -5.149 v -65.744 z"
       id="path51"
       style="fill:#c855ff" /><path
       d="m 620.867,103.051 h 17.103 c 21.7,0 32.734,13.976 32.734,32.274 v 0.828 c 0,18.205 -10.482,32.642 -32.918,32.642 h -16.919 v -65.744 z m 16.736,61.514 c 18.666,0 27.769,-11.77 27.769,-28.505 v -0.735 c 0,-16.183 -8.552,-28.044 -27.86,-28.044 h -11.494 v 57.285 h 11.585 z"
       id="path53"
       style="fill:#c855ff" /><path
       d="m 679.893,103.051 h 37.792 v 4.229 h -32.643 v 25.654 h 26.481 v 4.229 h -26.481 v 27.401 h 34.297 v 4.229 h -39.446 v -65.742 z"
       id="path55"
       style="fill:#c855ff" /></g></svg>