<?xml version="1.0" encoding="UTF-8" standalone="no"?>
<!-- Creator: CorelDRAW X7 -->
<svg id="svg2" xmlns="http://www.w3.org/2000/svg" fill-rule="evenodd" xml:space="preserve" height="256" width="256" version="1.1" xmlns:cc="http://creativecommons.org/ns#" xmlns:dc="http://purl.org/dc/elements/1.1/" viewBox="0 0 7224.8892 7224.8888"><defs id="defs4"><style id="style6" type="text/css">
    .fil3 {fill:#2C55A6}
    .fil2 {fill:#4373B9}
    .fil1 {fill:#469BD4}
    .fil0 {fill:#4AC8F4}
   </style></defs><g transform="matrix(1.8594992,0,0,1.8594992,-15201.169,-11844.22)"><g id="_845316240"><path id="path11" fill="#4ac8f4" class="fil0" d="m10148,10136,0-542c128-68,1002-592,1050-592,29,0,199,106,242,130l232,141-1524,863zm-61-3067,61-7,0-549,1307,759c48,29,149,93,200,104v34c-61,17-343,198-460,254l36,62,475-265v1744c-80-42-158-92-238-135l-227-136c0,91,6,25-23,50-77-9-448-244-549-301-73-41-506-302-541-305-76-9-920,536-1081,601l58,50c253,163,726,399,975,565v542c-130-68-245-140-378-215-87-49-1101-627-1129-665,43-23,429-222,450-271l-10-60-474,280v-1744l477,271,25-68-342-193c-51-31-64-46-126-61,45-67,1157-688,1309-773,54-31,145-93,198-107l7,539zm-1615,290,0,1931c431,228,987,585,1439,829,245,133,147,160,420-3l1246-717c106-64,196-91,196-143v-1846c0-71-331-223-386-257l-1246-718c-60-13-352,173-417,212-68,41-137,81-204,119-74,43-137,82-214,125-83,46-769,453-834,468z"/><path id="path13" fill="#469bd4" class="fil1" d="m11218,8984c29-25,23,41,23-50-42-191-10-956-10-1208l-36-62-1047-592v1243c162,63,843,510,1067,606l3,63z"/><path id="path15" fill="#4373b9" class="fil2" d="m9041,7664-25,68-3,1193c105-44,1066-607,1074-634v-1222c-242,124-888,526-1046,595z"/><path id="path17" fill="#2c55a6" class="fil3" d="m10087,7069,0,1222c-8,27-969,590-1074,634l10,60,24-6c161-65,1005-610,1081-601,35,3,468,264,541,305,101,57,472,292,549,301l-3-63c-224-96-905-543-1067-606v-1243-10l-61,7z"/></g></g></svg>
